<?xml version="1.0" encoding="utf-8"?>
<!-- Generator: Adobe Illustrator 24.0.0, SVG Export Plug-In . SVG Version: 6.00 Build 0)  -->
<svg version="1.1" id="Capa_1" xmlns="http://www.w3.org/2000/svg" xmlns:xlink="http://www.w3.org/1999/xlink" x="0px" y="0px"
	 viewBox="0 0 119.21 29.43" style="enable-background:new 0 0 119.21 29.43;" xml:space="preserve">
<style type="text/css">
	.st0{fill:#FFFFFF;}
</style>
<g>
	<path class="st0" d="M4.08,15.68l-2.14,5.81H0.62l6.17-16.8h1.54l6.43,16.8h-1.42l-2.18-5.81H4.08z M10.73,14.48
		C8.86,9.49,7.9,7.09,7.56,5.96H7.54c-0.41,1.27-1.49,4.25-3,8.52H10.73z"/>
	<path class="st0" d="M17.35,12.52c0-1.06,0-2.06-0.02-3.02h1.18c0.05,0.38,0.07,1.94,0.05,2.28c0.53-1.22,1.51-2.57,3.98-2.57
		c2.14,0,4.03,1.2,4.03,4.51v7.78h-1.2v-7.58c0-2.14-0.89-3.53-2.98-3.53c-2.86,0-3.84,2.38-3.84,4.99v6.12h-1.2V12.52z"/>
	<path class="st0" d="M30.5,3.8h1.2v2.33h-1.2V3.8z M30.5,9.49h1.2v12h-1.2V9.49z"/>
	<path class="st0" d="M35.64,12.59c0-1.03,0-2.16-0.02-3.1h1.18c0.02,0.41,0.07,1.44,0.05,2.14c0.5-1.2,1.61-2.42,3.6-2.42
		c1.68,0,3,0.84,3.48,2.38c0.6-1.25,1.8-2.38,3.91-2.38c1.85,0,3.77,1.06,3.77,4.39v7.9h-1.2v-7.75c0-1.61-0.58-3.36-2.81-3.36
		c-2.33,0-3.38,1.87-3.38,4.2v6.91h-1.18v-7.73c0-1.75-0.53-3.38-2.74-3.38c-2.33,0-3.46,2.06-3.46,4.51v6.6h-1.2V12.59z"/>
	<path class="st0" d="M63.62,19.21c0,1.06,0.1,1.9,0.17,2.28h-1.15c-0.1-0.29-0.17-0.82-0.22-1.85c-0.41,0.89-1.46,2.14-3.94,2.14
		c-2.78,0-3.98-1.8-3.98-3.6c0-2.64,2.04-3.84,5.64-3.84c1.01,0,1.8,0,2.28,0v-1.22c0-1.2-0.36-2.81-3.1-2.81
		c-2.42,0-2.78,1.27-3.05,2.26h-1.2c0.14-1.32,0.96-3.36,4.27-3.36c2.74,0,4.27,1.15,4.27,3.79V19.21z M62.45,15.37
		c-0.46,0-1.56,0-2.35,0c-2.66,0-4.32,0.7-4.32,2.76c0,1.51,1.08,2.54,2.76,2.54c3.43,0,3.91-2.28,3.91-4.87V15.37z"/>
	<path class="st0" d="M67.58,21.49V3.8h1.2v17.69H67.58z"/>
	<path class="st0" d="M83.08,2.52v18.97h-4.93v-7.97h-1.48v7.97h-4.93V2.52h4.93V9.3h1.48V2.52H83.08z"/>
	<path class="st0" d="M96.33,13.63c0,1.91-0.04,3.26-0.13,4.05s-0.37,1.52-0.84,2.17s-1.11,1.16-1.92,1.51s-1.74,0.53-2.81,0.53
		c-1.02,0-1.93-0.17-2.74-0.5s-1.46-0.83-1.95-1.49s-0.79-1.39-0.88-2.17s-0.14-2.15-0.14-4.1v-3.25c0-1.91,0.04-3.26,0.13-4.05
		s0.37-1.52,0.84-2.17S87.01,3,87.81,2.65s1.74-0.53,2.81-0.53c1.02,0,1.93,0.17,2.74,0.5s1.46,0.83,1.95,1.49s0.79,1.39,0.88,2.17
		s0.14,2.15,0.14,4.1V13.63z M91.4,7.39c0-0.88-0.05-1.45-0.15-1.69s-0.3-0.37-0.6-0.37c-0.26,0-0.46,0.1-0.59,0.3
		s-0.21,0.79-0.21,1.76v8.86c0,1.1,0.04,1.78,0.13,2.04s0.3,0.39,0.63,0.39c0.34,0,0.55-0.15,0.64-0.45s0.14-1,0.14-2.12V7.39z"/>
	<path class="st0" d="M98.17,2.52h4.97c1.34,0,2.38,0.11,3.1,0.32s1.27,0.52,1.63,0.91s0.61,0.88,0.74,1.45s0.19,1.44,0.19,2.63
		v1.65c0,1.21-0.12,2.09-0.38,2.65s-0.71,0.98-1.38,1.28s-1.54,0.45-2.62,0.45h-1.32v7.64h-4.93V2.52z M103.11,5.77v4.83
		c0.14,0.01,0.26,0.01,0.36,0.01c0.45,0,0.77-0.11,0.94-0.33s0.26-0.69,0.26-1.39V7.32c0-0.65-0.1-1.07-0.3-1.27
		S103.75,5.77,103.11,5.77z"/>
	<path class="st0" d="M110.22,2.52h8.23v3.8h-3.29v3.6h3.08v3.61h-3.08v4.17h3.62v3.8h-8.55V2.52z"/>
</g>
</svg>
