<?xml version="1.0" encoding="utf-8"?>
<!-- Generator: Adobe Illustrator 24.0.0, SVG Export Plug-In . SVG Version: 6.00 Build 0)  -->
<svg version="1.1" id="Capa_1" xmlns="http://www.w3.org/2000/svg" xmlns:xlink="http://www.w3.org/1999/xlink" x="0px" y="0px"
	 viewBox="0 0 612 792" style="enable-background:new 0 0 612 792;" xml:space="preserve">
<style type="text/css">
	.st0{fill:none;}
</style>
<g>
	<path d="M136.63,295.58l-6.41,17.43h-3.96l18.51-50.4h4.61l19.3,50.4h-4.25l-6.55-17.43H136.63z M156.58,291.98
		c-5.62-14.98-8.5-22.18-9.5-25.56H147c-1.22,3.82-4.46,12.75-9,25.56H156.58z"/>
	<path d="M176.45,286.08c0-3.17,0-6.19-0.07-9.07h3.53c0.14,1.15,0.22,5.83,0.14,6.84c1.58-3.67,4.54-7.7,11.95-7.7
		c6.41,0,12.1,3.6,12.1,13.54v23.33h-3.6v-22.75c0-6.41-2.66-10.58-8.93-10.58c-8.57,0-11.52,7.13-11.52,14.98v18.36h-3.6V286.08z"
		/>
	<path d="M215.9,259.94h3.6v6.98h-3.6V259.94z M215.9,277h3.6v36h-3.6V277z"/>
	<path d="M231.31,286.29c0-3.1,0-6.48-0.07-9.29h3.53c0.07,1.22,0.22,4.32,0.14,6.41c1.51-3.6,4.82-7.27,10.8-7.27
		c5.04,0,9,2.52,10.44,7.13c1.8-3.74,5.4-7.13,11.74-7.13c5.54,0,11.3,3.17,11.3,13.18v23.69h-3.6v-23.26
		c0-4.82-1.73-10.08-8.42-10.08c-6.98,0-10.15,5.62-10.15,12.6v20.74h-3.53v-23.19c0-5.26-1.58-10.15-8.21-10.15
		c-6.98,0-10.37,6.19-10.37,13.54v19.8h-3.6V286.29z"/>
	<path d="M315.26,306.16c0,3.17,0.29,5.69,0.5,6.84h-3.46c-0.29-0.86-0.5-2.45-0.65-5.54c-1.22,2.66-4.39,6.41-11.81,6.41
		c-8.35,0-11.95-5.4-11.95-10.8c0-7.92,6.12-11.52,16.92-11.52c3.02,0,5.4,0,6.84,0v-3.67c0-3.6-1.08-8.42-9.29-8.42
		c-7.27,0-8.35,3.82-9.14,6.77h-3.6c0.43-3.96,2.88-10.08,12.82-10.08c8.21,0,12.82,3.46,12.82,11.38V306.16z M311.74,294.64
		c-1.37,0-4.68,0-7.06,0c-7.99,0-12.96,2.09-12.96,8.28c0,4.54,3.24,7.63,8.28,7.63c10.3,0,11.74-6.84,11.74-14.62V294.64z"/>
	<path d="M327.14,313.01v-53.07h3.6v53.07H327.14z"/>
	<path d="M373.63,256.09v56.92h-14.8V289.1h-4.43v23.91h-14.8v-56.92h14.8v20.36h4.43v-20.36H373.63z"/>
	<path d="M411.28,282.74v11.43c0,4.2-0.21,7.27-0.63,9.23c-0.42,1.96-1.32,3.79-2.71,5.48c-1.38,1.7-3.16,2.95-5.33,3.76
		c-2.17,0.81-4.66,1.21-7.47,1.21c-3.14,0-5.8-0.35-7.98-1.04s-3.87-1.73-5.08-3.13c-1.21-1.39-2.07-3.08-2.58-5.06
		c-0.52-1.98-0.77-4.95-0.77-8.91v-11.95c0-4.34,0.47-7.72,1.41-10.16c0.94-2.44,2.62-4.39,5.06-5.87c2.44-1.48,5.55-2.21,9.35-2.21
		c3.19,0,5.92,0.47,8.21,1.42s4.05,2.19,5.29,3.71c1.24,1.52,2.09,3.09,2.55,4.71S411.28,279.43,411.28,282.74z M397.08,279.22
		c0-2.39-0.13-3.9-0.39-4.52c-0.26-0.62-0.81-0.93-1.65-0.93s-1.41,0.31-1.69,0.93c-0.28,0.62-0.42,2.13-0.42,4.52v21.06
		c0,2.2,0.14,3.64,0.42,4.31s0.83,1,1.65,1c0.84,0,1.4-0.3,1.67-0.91c0.27-0.61,0.4-1.92,0.4-3.94V279.22z"/>
	<path d="M430.41,266.35l-0.25,4.12c1.27-1.67,2.66-2.91,4.18-3.73c1.52-0.82,3.19-1.23,4.99-1.23c2.2,0,4.11,0.59,5.71,1.78
		c1.6,1.18,2.61,2.55,3.01,4.1c0.4,1.55,0.6,4.17,0.6,7.88v19.65c0,4.24-0.25,7.26-0.76,9.05c-0.5,1.79-1.54,3.22-3.09,4.29
		c-1.56,1.07-3.44,1.6-5.64,1.6c-1.76,0-3.39-0.41-4.89-1.23c-1.5-0.82-2.87-2.04-4.11-3.66v10.7h-14.2v-53.3H430.41z
		 M434.45,279.92c0-2.88-0.11-4.63-0.32-5.24c-0.21-0.61-0.8-0.91-1.76-0.91c-0.94,0-1.54,0.35-1.81,1.05c-0.27,0.7-0.4,2.4-0.4,5.1
		v19.34c0,2.81,0.14,4.57,0.42,5.27s0.89,1.05,1.83,1.05c0.91,0,1.48-0.32,1.71-0.97c0.22-0.64,0.33-2.21,0.33-4.69V279.92z"/>
	<path d="M485.5,290.51h-18.39v10.09c0,2.11,0.15,3.47,0.46,4.08c0.3,0.61,0.89,0.91,1.76,0.91c1.08,0,1.8-0.4,2.16-1.21
		c0.36-0.81,0.54-2.37,0.54-4.69v-6.15h13.46v3.45c0,2.88-0.18,5.1-0.54,6.64c-0.36,1.55-1.21,3.2-2.55,4.96s-3.03,3.08-5.08,3.96
		c-2.05,0.88-4.62,1.32-7.72,1.32c-3,0-5.65-0.43-7.95-1.3c-2.3-0.87-4.08-2.06-5.36-3.57c-1.28-1.51-2.16-3.18-2.65-4.99
		c-0.49-1.82-0.74-4.46-0.74-7.93v-13.61c0-4.08,0.55-7.29,1.65-9.65c1.1-2.36,2.91-4.16,5.41-5.41c2.51-1.25,5.39-1.88,8.65-1.88
		c3.98,0,7.27,0.76,9.86,2.27c2.59,1.51,4.41,3.52,5.45,6.01c1.04,2.5,1.56,6.01,1.56,10.53V290.51z M471.26,282.91v-3.41
		c0-2.41-0.13-3.97-0.39-4.68c-0.26-0.7-0.79-1.05-1.58-1.05c-0.98,0-1.59,0.3-1.83,0.9c-0.23,0.6-0.35,2.21-0.35,4.83v3.41H471.26z
		"/>
</g>
<polygon class="st0" points="289.83,294.56 128.77,294.56 128.77,294.56 289.83,294.56 "/>
</svg>
